<?xml version="1.0" encoding="UTF-8"?>
<svg id="Capa_1" xmlns="http://www.w3.org/2000/svg" version="1.1" viewBox="0 0 1366 768">
  <!-- Generator: Adobe Illustrator 30.1.0, SVG Export Plug-In . SVG Version: 2.1.1 Build 136)  -->
  <defs>
    <style>
      .st0 {
        font-family: Montserrat-SemiBold, Montserrat;
        font-size: 120.17px;
        font-weight: 600;
      }

      .st0, .st1 {
        fill: #002d85;
      }

      .st2 {
        fill: #fff;
      }

      .st3 {
        font-family: Montserrat-Medium, Montserrat;
        font-size: 65.63px;
        font-weight: 500;
      }
    </style>
  </defs>
  <g>
    <path class="st1" d="M252,563.41c-58.3-23.17-131.64-56.18-148.97-121.34-16.13-60.64-2.28-130.37-9.25-197.73,95.37-51.32,203.69-54.6,301.87-5.56,6.62,169.41,35.51,247.49-143.66,324.63ZM154.03,384.9l71.24,68.12,110.6-110.03c.98-11.06-19.56-34.12-26.64-27.69l-84.09,81.02-44.63-36.28-26.47,24.86Z"/>
    <path class="st2" d="M154.03,384.9l26.47-24.86,44.63,36.28,84.09-81.02c7.09-6.43,27.63,16.62,26.64,27.69l-110.6,110.03-71.24-68.12Z"/>
  </g>
  <text class="st3" transform="translate(466.01 343.13)"><tspan x="0" y="0">Plataforma regulada por</tspan></text>
  <text class="st0" transform="translate(694.66 468.11)"><tspan x="0" y="0">CNBV</tspan></text>
</svg>