<svg width="21" height="21" viewBox="0 0 21 21" fill="none" xmlns="http://www.w3.org/2000/svg">
<mask id="mask0_1375_1707" style="mask-type:alpha" maskUnits="userSpaceOnUse" x="0" y="0" width="21" height="21">
<rect x="0.943359" y="0.216797" width="20" height="20" fill="#9CA3AF"/>
</mask>
<g mask="url(#mask0_1375_1707)">
<path d="M10.943 13.55C11.9847 13.55 12.8701 13.1855 13.5993 12.4563C14.3285 11.7271 14.693 10.8417 14.693 9.80005C14.693 8.75838 14.3285 7.87297 13.5993 7.1438C12.8701 6.41463 11.9847 6.05005 10.943 6.05005C9.90137 6.05005 9.01595 6.41463 8.28678 7.1438C7.55762 7.87297 7.19303 8.75838 7.19303 9.80005C7.19303 10.8417 7.55762 11.7271 8.28678 12.4563C9.01595 13.1855 9.90137 13.55 10.943 13.55ZM10.943 12.05C10.318 12.05 9.78678 11.8313 9.34928 11.3938C8.91178 10.9563 8.69303 10.425 8.69303 9.80005C8.69303 9.17505 8.91178 8.6438 9.34928 8.2063C9.78678 7.7688 10.318 7.55005 10.943 7.55005C11.568 7.55005 12.0993 7.7688 12.5368 8.2063C12.9743 8.6438 13.193 9.17505 13.193 9.80005C13.193 10.425 12.9743 10.9563 12.5368 11.3938C12.0993 11.8313 11.568 12.05 10.943 12.05ZM10.943 16.05C8.91526 16.05 7.06803 15.4841 5.40137 14.3521C3.7347 13.2202 2.52637 11.7028 1.77637 9.80005C2.52637 7.89727 3.7347 6.37991 5.40137 5.24797C7.06803 4.11602 8.91526 3.55005 10.943 3.55005C12.9708 3.55005 14.818 4.11602 16.4847 5.24797C18.1514 6.37991 19.3597 7.89727 20.1097 9.80005C19.3597 11.7028 18.1514 13.2202 16.4847 14.3521C14.818 15.4841 12.9708 16.05 10.943 16.05ZM10.943 14.3834C12.5125 14.3834 13.9535 13.9702 15.266 13.1438C16.5785 12.3174 17.5819 11.2028 18.2764 9.80005C17.5819 8.39727 16.5785 7.28269 15.266 6.4563C13.9535 5.62991 12.5125 5.21672 10.943 5.21672C9.37359 5.21672 7.93262 5.62991 6.62012 6.4563C5.30762 7.28269 4.30415 8.39727 3.6097 9.80005C4.30415 11.2028 5.30762 12.3174 6.62012 13.1438C7.93262 13.9702 9.37359 14.3834 10.943 14.3834Z" fill="#9CA3AF"/>
</g>
</svg>
