<?xml version="1.0" encoding="UTF-8"?>
<svg id="Capa_1" xmlns="http://www.w3.org/2000/svg" xmlns:xlink="http://www.w3.org/1999/xlink" version="1.1" viewBox="0 0 1200 1200">
  <!-- Generator: Adobe Illustrator 30.1.0, SVG Export Plug-In . SVG Version: 2.1.1 Build 136)  -->
  <defs>
    <style>
      .st0 {
        fill: #fff;
      }

      .st1 {
        fill: url(#Degradado_sin_nombre_2);
      }
    </style>
    <linearGradient id="Degradado_sin_nombre_2" data-name="Degradado sin nombre 2" x1="110.27" y1="600" x2="1055.86" y2="600" gradientUnits="userSpaceOnUse">
      <stop offset="0" stop-color="#0f58dc"/>
      <stop offset=".99" stop-color="#1caaff"/>
    </linearGradient>
  </defs>
  <rect class="st1" x="110.27" y="127.2" width="945.59" height="945.59" rx="133.81" ry="133.81"/>
  <g>
    <path class="st0" d="M583.06,286.76c102.02,0,114.11.39,154.39,2.23,37.25,1.7,57.49,7.93,70.95,13.16,17.83,6.93,30.57,15.2,43.93,28.58,13.37,13.37,21.65,26.1,28.58,43.93,5.23,13.47,11.45,33.7,13.16,70.96,1.83,40.29,2.23,52.37,2.23,154.39s-.4,114.11-2.23,154.39c-1.7,37.26-7.93,57.49-13.16,70.95-6.93,17.84-15.21,30.57-28.58,43.94-13.37,13.37-26.1,21.65-43.93,28.58-13.47,5.24-33.7,11.46-70.95,13.16-40.29,1.83-52.36,2.22-154.39,2.22s-114.11-.39-154.4-2.22c-37.25-1.7-57.48-7.93-70.95-13.16-17.84-6.93-30.56-15.21-43.94-28.58-13.37-13.37-21.65-26.1-28.58-43.94-5.23-13.46-11.45-33.69-13.16-70.95-1.83-40.29-2.22-52.37-2.22-154.39s.39-114.11,2.22-154.39c1.7-37.26,7.93-57.49,13.16-70.96,6.93-17.83,15.21-30.55,28.58-43.93,13.37-13.37,26.1-21.65,43.94-28.58,13.46-5.24,33.7-11.46,70.95-13.16,40.29-1.84,52.38-2.23,154.4-2.23M583.06,217.91c-103.77,0-116.78.45-157.54,2.3-40.67,1.86-68.44,8.32-92.75,17.76-25.13,9.77-46.43,22.83-67.68,44.07-21.24,21.24-34.31,42.55-44.07,67.68-9.45,24.31-15.91,52.08-17.76,92.74-1.86,40.76-2.3,53.77-2.3,157.54s.43,116.78,2.3,157.54c1.85,40.67,8.31,68.44,17.76,92.74,9.76,25.12,22.82,46.44,44.07,67.68,21.24,21.24,42.55,34.31,67.68,44.07,24.31,9.44,52.08,15.9,92.75,17.76,40.76,1.86,53.77,2.3,157.54,2.3s116.78-.44,157.54-2.3c40.67-1.85,68.44-8.32,92.74-17.76,25.13-9.77,46.44-22.83,67.68-44.07,21.24-21.24,34.31-42.55,44.07-67.68,9.44-24.31,15.9-52.08,17.76-92.74,1.85-40.76,2.29-53.77,2.29-157.54s-.44-116.78-2.29-157.54c-1.86-40.67-8.32-68.44-17.76-92.74-9.77-25.12-22.83-46.44-44.07-67.68-21.24-21.25-42.55-34.31-67.68-44.07-24.3-9.44-52.08-15.9-92.74-17.76-40.76-1.85-53.77-2.3-157.54-2.3"/>
    <path class="st0" d="M583.06,403.8c-108.36,0-196.21,87.84-196.21,196.21s87.85,196.21,196.21,196.21,196.21-87.85,196.21-196.21-87.84-196.21-196.21-196.21M583.06,727.36c-70.34,0-127.36-57.02-127.36-127.36s57.02-127.36,127.36-127.36,127.36,57.02,127.36,127.36-57.02,127.36-127.36,127.36"/>
    <path class="st0" d="M832.88,396.04c0,25.32-20.53,45.86-45.85,45.86s-45.85-20.54-45.85-45.86,20.53-45.85,45.85-45.85,45.85,20.53,45.85,45.85"/>
  </g>
</svg>