<?xml version="1.0" encoding="UTF-8"?>
<svg id="Capa_1" xmlns="http://www.w3.org/2000/svg" xmlns:xlink="http://www.w3.org/1999/xlink" version="1.1" viewBox="0 0 1200 1200">
  <!-- Generator: Adobe Illustrator 30.1.0, SVG Export Plug-In . SVG Version: 2.1.1 Build 136)  -->
  <defs>
    <style>
      .st0 {
        fill: #fff;
      }

      .st1 {
        fill: url(#Degradado_sin_nombre_5);
      }
    </style>
    <linearGradient id="Degradado_sin_nombre_5" data-name="Degradado sin nombre 5" x1="127.2" y1="585.51" x2="1072.8" y2="585.51" gradientUnits="userSpaceOnUse">
      <stop offset="0" stop-color="#0f58dc"/>
      <stop offset=".99" stop-color="#1caaff"/>
    </linearGradient>
  </defs>
  <rect class="st1" x="127.2" y="112.72" width="945.59" height="945.59" rx="133.81" ry="133.81"/>
  <g>
    <path class="st0" d="M923.62,321.67c7.6,0,14.8,1.77,21.21,4.9l-314.93,309.53c-10.76,10.57-28.26,10.57-39.01,0l-314.93-309.53c6.41-3.14,13.6-4.9,21.21-4.9h626.47Z"/>
    <path class="st0" d="M972.02,800.96c0,26.69-21.71,48.4-48.4,48.4H297.15c-26.69,0-48.4-21.71-48.4-48.4v-430.89c0-8.51,2.22-16.51,6.09-23.46l315.66,310.24c10.71,10.53,24.88,16.32,39.89,16.32s29.18-5.8,39.89-16.32l315.66-310.24c3.87,6.96,6.09,14.95,6.09,23.46v430.89Z"/>
  </g>
</svg>