<svg width="20" height="21" viewBox="0 0 20 21" fill="none" xmlns="http://www.w3.org/2000/svg">
<mask id="mask0_1166_2224" style="mask-type:alpha" maskUnits="userSpaceOnUse" x="0" y="0" width="20" height="21">
<rect y="0.5" width="20" height="20" fill="#D9D9D9"/>
</mask>
<g mask="url(#mask0_1166_2224)">
<path d="M13.4163 11.5833L12.208 10.3749C12.333 9.72214 12.1455 9.11103 11.6455 8.54159C11.1455 7.97214 10.4997 7.74992 9.70801 7.87492L8.49967 6.66659C8.73579 6.55547 8.97537 6.47214 9.21842 6.41659C9.46148 6.36103 9.7219 6.33325 9.99967 6.33325C11.0413 6.33325 11.9268 6.69784 12.6559 7.427C13.3851 8.15617 13.7497 9.04159 13.7497 10.0833C13.7497 10.361 13.7219 10.6214 13.6663 10.8645C13.6108 11.1076 13.5275 11.3471 13.4163 11.5833ZM16.083 14.2083L14.8747 13.0416C15.4025 12.6388 15.8712 12.1978 16.2809 11.7187C16.6906 11.2395 17.0413 10.6944 17.333 10.0833C16.6386 8.68047 15.642 7.56589 14.3434 6.7395C13.0448 5.91311 11.5969 5.49992 9.99967 5.49992C9.5969 5.49992 9.20106 5.5277 8.81217 5.58325C8.42329 5.63881 8.04134 5.72214 7.66634 5.83325L6.37467 4.54159C6.94412 4.30547 7.52745 4.12839 8.12467 4.01034C8.7219 3.89228 9.3469 3.83325 9.99967 3.83325C12.0969 3.83325 13.965 4.41311 15.6038 5.57284C17.2427 6.73256 18.4302 8.23603 19.1663 10.0833C18.8469 10.9027 18.4268 11.6631 17.9059 12.3645C17.3851 13.0659 16.7775 13.6805 16.083 14.2083ZM16.4997 19.3333L12.9997 15.8749C12.5136 16.0277 12.024 16.1423 11.5309 16.2187C11.0379 16.2951 10.5275 16.3333 9.99967 16.3333C7.90245 16.3333 6.0344 15.7534 4.39551 14.5937C2.75662 13.4339 1.56912 11.9305 0.833008 10.0833C1.12467 9.34714 1.49273 8.66311 1.93717 8.03117C2.38162 7.39922 2.88856 6.83325 3.45801 6.33325L1.16634 3.99992L2.33301 2.83325L17.6663 18.1666L16.4997 19.3333ZM4.62467 7.49992C4.2219 7.86103 3.85384 8.25686 3.52051 8.68742C3.18717 9.11797 2.90245 9.58325 2.66634 10.0833C3.36079 11.486 4.35731 12.6006 5.65592 13.427C6.95454 14.2534 8.40245 14.6666 9.99967 14.6666C10.2775 14.6666 10.5483 14.6492 10.8122 14.6145C11.0761 14.5798 11.3469 14.5416 11.6247 14.4999L10.8747 13.7083C10.7219 13.7499 10.5761 13.7812 10.4372 13.802C10.2983 13.8228 10.1525 13.8333 9.99967 13.8333C8.95801 13.8333 8.07259 13.4687 7.34342 12.7395C6.61426 12.0103 6.24967 11.1249 6.24967 10.0833C6.24967 9.93047 6.26009 9.78464 6.28092 9.64575C6.30176 9.50686 6.33301 9.36103 6.37467 9.20825L4.62467 7.49992Z" fill="#9CA3AF"/>
</g>
</svg>
